<svg width="131" height="131" viewBox="0 0 131 131" fill="none" xmlns="http://www.w3.org/2000/svg">
<mask id="mask0_114_21" style="mask-type:alpha" maskUnits="userSpaceOnUse" x="0" y="0" width="131" height="131">
<circle cx="65.5" cy="65.5" r="65.5" fill="#79CFDB"/>
</mask>
<g mask="url(#mask0_114_21)">
<circle cx="65.5" cy="65.5" r="65.5" fill="#4365E0"/>
<path d="M131 65.5C131 101.675 101.675 131 65.5 131C29.3253 131 0 101.675 0 65.5C0 29.3253 29.3253 0 65.5 0C101.675 0 131 29.3253 131 65.5Z" fill="url(#paint0_linear_114_21)"/>
<rect x="79" y="97.2235" width="81" height="84" rx="16" transform="rotate(-33.9393 79 97.2235)" fill="#BBF6D8"/>
<path d="M29 48C28.2 38.8 9.66667 36.8333 0.5 37L-13 79L15 117C19.6667 118.167 27.6 118.4 22 110C16.4 101.6 19.6667 100.167 22 100.5C28.8333 100.333 44.8 98.3 54 91.5C65.5 83 51.5 58.5 47.5 60C43.5 61.5 30 59.5 29 48Z" fill="#BBF6D8"/>
<path d="M38.5 32C29.3 33.6 19.6667 19.6667 16 12.5L18.5 10.5L73 -4.5C73 -0.333333 72.1 8.9 68.5 12.5C64 17 58 12.5 54 12.5C50 12.5 62 21.5 68.5 21C75 20.5 79.5 42 77 45.5C74.5 49 57 47 58 42C59 37 50 30 38.5 32Z" fill="#BBF6D8"/>
</g>
<defs>
<linearGradient id="paint0_linear_114_21" x1="112.5" y1="-9.00001" x2="37" y2="147" gradientUnits="userSpaceOnUse">
<stop stop-color="#79CFDB"/>
<stop offset="1" stop-color="#577DD2" stop-opacity="0"/>
</linearGradient>
</defs>
</svg>
